<svg width="36" height="36" xmlns="http://www.w3.org/2000/svg" fill="none">

 <g>
  <title>Layer 1</title>
  <g id="svg_2">
   <path fill-rule="evenodd" clip-rule="evenodd" d="m25.72184,22.63522l-1.62562,0l-0.57617,-0.55559c2.01659,-2.34583 3.23066,-5.3913 3.23066,-8.70427c0,-7.38731 -5.98804,-13.37536 -13.37536,-13.37536c-7.38731,0 -13.37536,5.98804 -13.37536,13.37536c0,7.38731 5.98804,13.37536 13.37536,13.37536c3.31297,0 6.35844,-1.21407 8.70427,-3.23066l0.55559,0.57617l0,1.62562l10.28874,10.26816l3.06604,-3.06604l-10.26816,-10.28874l0.00001,-0.00001zm-12.34648,0c-5.12379,0 -9.25986,-4.13607 -9.25986,-9.25986c0,-5.12379 4.13607,-9.25986 9.25986,-9.25986c5.12379,0 9.25986,4.13607 9.25986,9.25986c0,5.12379 -4.13607,9.25986 -9.25986,9.25986z" fill="#999999" id="svg_1" stroke="null"/>
  </g>
 </g>
</svg>